<svg t="1741768208286" class="icon" viewBox="0 0 1024 1024" version="1.1"
  xmlns="http://www.w3.org/2000/svg" p-id="12085" xmlns:xlink="http://www.w3.org/1999/xlink"
  width="32" height="32">
  <path
    d="M914.285714 73.142857H109.714286c-20.114286 0-36.571429 16.457143-36.571429 36.571429v804.571428c0 20.114286 16.457143 36.571429 36.571429 36.571429h804.571428c20.114286 0 36.571429-16.457143 36.571429-36.571429V109.714286c0-20.114286-16.457143-36.571429-36.571429-36.571429z m-36.571428 804.571429H146.285714v-109.714286h731.428572v109.714286zM146.285714 694.857143V146.285714h731.428572v548.571429H146.285714z"
    p-id="12086" fill="currentColor"></path>
  <path
    d="M705.828571 402.285714l-43.885714-113.371428c-5.485714-14.628571-18.285714-23.771429-32.914286-23.771429s-29.257143 7.314286-34.742857 21.942857l-78.628571 177.371429-51.2-111.542857c-5.485714-12.8-20.114286-21.942857-34.742857-21.942857-14.628571 0-27.428571 9.142857-32.914286 23.771428L349.257143 475.428571H274.285714v73.142858h98.742857c14.628571 0 29.257143-9.142857 34.742858-23.771429l25.6-64 49.371428 106.057143c5.485714 12.8 18.285714 21.942857 32.914286 21.942857s27.428571-9.142857 32.914286-21.942857l76.8-170.057143 20.114285 54.857143c5.485714 14.628571 18.285714 23.771429 34.742857 23.771428H749.714286v-73.142857h-43.885715zM310.857143 786.285714h-128v73.142857h128v-73.142857zM475.428571 786.285714h-128v73.142857h128v-73.142857zM841.142857 786.285714h-128v73.142857h128v-73.142857z"
    p-id="12087" fill="currentColor"></path>
</svg>