<svg t="1741768459455" class="icon" viewBox="0 0 1024 1024" version="1.1"
  xmlns="http://www.w3.org/2000/svg" p-id="14911" xmlns:xlink="http://www.w3.org/1999/xlink"
  width="32" height="32">
  <path d="M233.293663 583.829573c0.621303 0 1.219596 0.115056 1.840899 0.115056" fill="#777777"
    p-id="14912"></path>
  <path
    d="M733.477393 1024H131.549483A66.997213 66.997213 0 0 1 64.632809 957.083326V220.470652a66.974202 66.974202 0 0 1 66.916674-66.893663h601.92791a66.962697 66.962697 0 0 1 66.893663 66.893663v736.612674A66.974202 66.974202 0 0 1 733.477393 1024zM131.549483 206.19218a14.301483 14.301483 0 0 0-14.301483 14.278472v736.612674a14.324494 14.324494 0 0 0 14.301483 14.301483h601.92791a14.312989 14.312989 0 0 0 14.289978-14.301483V220.470652a14.289978 14.289978 0 0 0-14.289978-14.278472z"
    fill="currentColor" p-id="14913"></path>
  <path
    d="M959.367191 827.553079h-52.615191V70.310831a17.730157 17.730157 0 0 0-17.707146-17.707146H269.398292V0h619.646562a70.391371 70.391371 0 0 1 70.322337 70.310831z"
    fill="currentColor" p-id="14914"></path>
  <path
    d="M97.009618 656.453034h677.04809v57.056359H97.009618zM97.009618 799.916584h677.04809v57.05636H97.009618zM258.778607 446.038292a159.065169 159.065169 0 0 0 159.065168 159.065169V286.984629a159.065169 159.065169 0 0 0-159.065168 159.053663zM434.124225 452.987685v152.115776c87.845393 0 159.053663-64.270382 159.053663-152.115776H434.124225zM434.124225 347.538697h127.712359a149.21636 149.21636 0 0 0-17.005303-18.834697h-110.707056zM434.124225 411.544449v27.394877h159.053663a154.382382 154.382382 0 0 0-2.807371-27.394877zM578.945438 375.15218a143.36 143.36 0 0 0-10.677213-18.834697H434.124225v18.834697zM533.440719 319.925213a164.346247 164.346247 0 0 0-99.316494-32.940584v32.940584zM588.506607 402.765663a146.052315 146.052315 0 0 0-6.017438-18.834697H434.124225v18.834697z"
    fill="currentColor" p-id="14915"></path>
</svg>