<svg t="1741768107567" class="icon" viewBox="0 0 1134 1024" version="1.1"
  xmlns="http://www.w3.org/2000/svg" p-id="8926" xmlns:xlink="http://www.w3.org/1999/xlink"
  width="35.4375" height="32">
  <path
    d="M459.386819 512.947614a241.909391 241.909391 0 0 1 27.027601-13.348998c69.546632-29.170033 143.542931-29.170033 215.396798 18.952281a35.906333 35.906333 0 0 0 49.440733-10.052949 35.494327 35.494327 0 0 0-9.393739-49.275931c-94.596604-63.119337-193.642874-63.119337-283.460208-25.379577a267.021164 267.021164 0 0 0-49.111129 26.038786 35.494327 35.494327 0 0 0-8.404924 49.770339 35.906333 35.906333 0 0 0 50.264746 8.404925c1.153617-0.65921 3.955259-2.472037 8.404924-5.108876zM321.694375 353.254044c3.955259-2.472037 8.73453-5.438481 14.173011-8.569728a529.263056 529.263056 0 0 1 54.879214-27.027601c140.906092-58.999276 292.524342-58.999276 439.363322 38.893378a35.494327 35.494327 0 0 0 36.091736 2.636839 35.123521 35.123521 0 0 0 20.105898-29.829243 35.494327 35.494327 0 0 0-16.15064-32.136477c-169.416915-113.054478-345.920335-113.054478-507.261929-45.485475a604.742577 604.742577 0 0 0-63.119337 30.900458c-11.206566 6.592098-19.446689 11.700974-24.061157 14.997023a35.494327 35.494327 0 0 0-8.404925 49.770339 35.906333 35.906333 0 0 0 50.099944 8.404925 22.433733 22.433733 0 0 0 4.284863-2.63684z"
    p-id="8927" fill="currentColor"></path>
  <path
    d="M163.978434 191.582844c6.427295-4.120061 14.17301-8.899332 23.072343-14.008208a777.064135 777.064135 0 0 1 88.004506-43.260642c93.937394-39.387785 196.279714-62.954534 302.824495-62.954535 136.78603 0 271.264827 39.140581 400.634747 125.414662a36.503742 36.503742 0 0 0 35.762131 2.472037 35.576728 35.576728 0 0 0 4.120061-61.636115C876.996218 43.013438 728.509214 0 577.714975 0c-117.009737 0-228.416191 25.709182-330.758509 68.557818a837.38183 837.38183 0 0 0-96.079826 47.380703C133.901988 125.826668 121.541804 133.572383 115.032108 138.351654a35.308924 35.308924 0 0 0-8.240123 49.605536 35.988734 35.988734 0 0 0 49.935141 8.404925c1.31842-0.824012 3.625654-2.472037 7.251308-4.779271zM913.170355 583.647864H221.65929C99.211073 583.647864 0 682.364529 0 803.823932s99.375875 220.176068 221.65929 220.176068h691.511065c122.448218 0 221.65929-98.716665 221.65929-220.176068s-99.211073-220.176068-221.65929-220.176068zM274.828679 858.744347a64.849763 64.849763 0 0 1-63.860947 0 63.860948 63.860948 0 1 1 63.860947 0z m298.704434 8.73453a63.737346 63.737346 0 1 1 63.860948-63.860948 63.860948 63.860948 0 0 1-63.881548 63.819747z m362.565382-8.73453a64.808562 64.808562 0 0 1-63.860948 0 63.860948 63.860948 0 1 1 63.860948 0z"
    p-id="8928" fill="currentColor"></path>
</svg>